<?xml version="1.0" encoding="UTF-8"?>
<svg width="20px" height="13px" viewBox="0 0 20 13" version="1.1" xmlns="http://www.w3.org/2000/svg" xmlns:xlink="http://www.w3.org/1999/xlink">
    <!-- Generator: Sketch 48.2 (47327) - http://www.bohemiancoding.com/sketch -->
    <title>behance-6081_a83e4a23-33af-410a-aaed-a49ee4e93752</title>
    <desc>Created with Sketch.</desc>
    <defs></defs>
    <g id="Desktop-Copy-12" stroke="none" stroke-width="1" fill="none" fill-rule="evenodd" transform="translate(-1131.000000, -65.000000)">
        <g id="behance-6081_a83e4a23-33af-410a-aaed-a49ee4e93752" transform="translate(1131.000000, 65.000000)" fill="#202020" fill-rule="nonzero">
            <path d="M8.2759375,5.825 C9.3384375,5.2896875 9.8071875,4.4396875 9.8071875,3.2115625 C9.80625,0.8815625 8.08875,0 5.74625,0 L0,0 L0,12.5 L5.7775,12.5 C7.99625,12.5 10.1809375,11.398125 10.1809375,8.8790625 C10.1809375,7.430625 9.65,6.2971875 8.2759375,5.825 Z M2.873125,2.1409375 L5.4028125,2.1409375 C6.3715625,2.1409375 7.3090625,2.3928125 7.3090625,3.589375 C7.3090625,4.5653125 6.5903125,4.943125 5.6528125,4.943125 L2.873125,4.943125 L2.873125,2.1409375 Z M5.62125,10.3596875 L2.873125,10.3596875 L2.873125,7.0215625 L5.68375,7.0215625 C6.84,7.0215625 7.59,7.4625 7.59,8.7534375 C7.5890625,9.9496875 6.683125,10.3590625 5.6215625,10.3590625 L5.62125,10.3596875 Z M15.70875,2.928125 C12.616875,2.928125 11.1490625,5.00625 11.1490625,7.7140625 C11.1490625,10.7996875 12.9928125,12.4684375 15.70875,12.4684375 C17.74,12.4684375 19.2065625,11.6496875 19.89375,9.5403125 L17.4875,9.5403125 C17.33125,10.1071875 16.55,10.579375 15.8,10.579375 C14.425,10.579375 13.58125,9.82375 13.51875,8.3125 L19.9871875,8.3125 C20.1434375,5.51 18.863125,2.928125 15.70875,2.928125 Z M13.5525,6.769375 C13.5488272,6.24766169 13.7621552,5.74789125 14.1414406,5.38964434 C14.520726,5.03139742 15.0318444,4.84690562 15.5525,4.8803125 C16.74,4.8803125 17.33375,5.51 17.58375,6.769375 L13.5525,6.769375 Z M13.023125,0.50375 L18.05125,0.50375 L18.05125,1.763125 L13.023125,1.763125 L13.023125,0.50375 Z" id="Shape"></path>
        </g>
    </g>
</svg>