<?xml version="1.0" encoding="UTF-8"?>
<svg width="12px" height="21px" viewBox="0 0 12 21" version="1.1" xmlns="http://www.w3.org/2000/svg" xmlns:xlink="http://www.w3.org/1999/xlink">
    <!-- Generator: Sketch 48.2 (47327) - http://www.bohemiancoding.com/sketch -->
    <title>tumblr-6130_e531411c-6c2c-46c1-81a9-28342b3e348a</title>
    <desc>Created with Sketch.</desc>
    <defs></defs>
    <g id="Desktop-Copy-12" stroke="none" stroke-width="1" fill="none" fill-rule="evenodd" transform="translate(-1135.000000, -194.000000)">
        <g id="tumblr-6130_e531411c-6c2c-46c1-81a9-28342b3e348a" transform="translate(1135.000000, 194.000000)" fill="#202020" fill-rule="nonzero">
            <path d="M9.44210526,16.8947368 C8.78864369,16.9230768 8.15209717,16.6824958 7.68073236,16.229031 C7.20936756,15.7755661 6.94433551,15.1488056 6.94736842,14.4947368 L6.94736842,8.17894737 L11.3684211,8.17894737 L11.3684211,5.02105263 L6.94736842,5.02105263 L6.94736842,0 L3.75789474,0 C3.75789474,4.38947368 0,5.17894737 0,5.17894737 L0,8.17894737 L2.52631579,8.17894737 L2.52631579,15.6315789 C2.52631579,18.1263158 4.83157895,20.2105263 7.64210526,20.2105263 C10.4526316,20.2105263 12,19.1052632 12,19.1052632 L12,15.7894737 C11.3502141,16.5144894 10.4154031,16.9184201 9.44210526,16.8947368 Z" id="Shape"></path>
        </g>
    </g>
</svg>