<?xml version="1.0" encoding="UTF-8"?>
<svg width="20px" height="17px" viewBox="0 0 20 17" version="1.1" xmlns="http://www.w3.org/2000/svg" xmlns:xlink="http://www.w3.org/1999/xlink">
    <!-- Generator: Sketch 48.2 (47327) - http://www.bohemiancoding.com/sketch -->
    <title>twitter-6132_d5bb006c-6282-44f1-904d-17d08edb1d78</title>
    <desc>Created with Sketch.</desc>
    <defs></defs>
    <g id="Desktop-Copy-12" stroke="none" stroke-width="1" fill="none" fill-rule="evenodd" transform="translate(-1131.000000, -103.000000)">
        <g id="twitter-6132_d5bb006c-6282-44f1-904d-17d08edb1d78" transform="translate(1131.000000, 103.000000)" fill="#202020" fill-rule="nonzero">
            <path d="M20,2.248125 C19.2810056,2.59125808 18.5101695,2.81300545 17.71875,2.904375 C18.5232867,2.36355623 19.1273173,1.57282526 19.4375,0.654375 C18.84375,1.029375 17.53125,1.560625 16.875,1.560625 C16.0766159,0.76816509 14.9998692,0.319520667 13.875,0.310625 C12.7806514,0.309545637 11.7308143,0.743795983 10.9569926,1.51761764 C10.183171,2.29143931 9.74892064,3.34127644 9.75,4.435625 C9.74862883,4.74019778 9.78006003,5.04403268 9.84375,5.341875 C6.75,5.248125 3.125,3.716875 1.09375,1.060625 C0.0365334055,2.92291891 0.579417137,5.28446314 2.34375,6.498125 C1.875,6.560625 0.96875,6.466875 0.5625,6.060625 C0.53125,7.498125 1.21875,9.404375 3.75,10.091875 C3.25,10.341875 2.40625,10.279375 2.03125,10.216875 C2.15625,11.435625 3.875,13.029375 5.71875,13.029375 C5.0625,13.779375 2.8125,15.185625 1.42108547e-14,14.748125 C1.94933885,15.9338349 4.18712121,16.5608464 6.46875,16.560625 C9.62958329,16.5815907 12.659694,15.3006123 14.8469964,13.0187239 C17.0342988,10.7368354 18.1859289,7.65524095 18.03125,4.498125 L18.03125,4.341875 C18.822556,3.78452824 19.4923573,3.07219995 20,2.248125 Z" id="Shape"></path>
        </g>
    </g>
</svg>