<?xml version="1.0" encoding="utf-8"?>
<!-- Generator: Adobe Illustrator 21.0.0, SVG Export Plug-In . SVG Version: 6.00 Build 0)  -->
<svg version="1.1" id="LOGOBASELINE_NOIR" xmlns="http://www.w3.org/2000/svg" xmlns:xlink="http://www.w3.org/1999/xlink" x="0px"
	 y="0px" viewBox="0 0 7973 2845.7" style="enable-background:new 0 0 7973 2845.7;" xml:space="preserve">
<style type="text/css">
	.st0{fill:#FFFFFF;}
	.st1{fill:#0F0A00;}
</style>
<title>Plan de travail 1 copie 2</title>
<path class="st0" d="M2335.3,1636.1h-522.3l-101.6,319.1h-88.1l394.5-1205.7h110.3l395.3,1205.7h-85.7L2335.3,1636.1z
	 M2310.7,1557.5l-234.1-730.3h-5.6l-232.6,730.3H2310.7z"/>
<path class="st0" d="M3588.7,1103.5c0,197.6-150,354-375.4,354h-377.8v497.7h-85.7V749.5h463.6
	C3438.7,749.5,3588.7,907.4,3588.7,1103.5z M3495.8,1103.5c0-159.5-111.9-281.8-290.5-281.8h-369.9v561.2h369.9
	C3383.9,1382.9,3495.9,1266.2,3495.8,1103.5L3495.8,1103.5z"/>
<path class="st0" d="M3737.2,1606.7l82.6-20.6c2.4,186.5,173.8,308.8,394.5,308.8c165.9,0,338.9-67.5,331.8-254.8
	c-7.1-180.2-175.4-218.3-373.9-265.9c-208-50-391.3-100.8-391.3-320.7c0-223.8,191.3-319.9,397.7-319.9
	c211.9,0,401.6,100,433.4,303.2l-83.4,23c-23-174.6-192.1-250-352.4-250c-150.8,0-311.1,66.7-311.1,239.7
	c0,168.3,146.1,211.1,328.6,253.2c215.1,49.2,439,96.8,439,341.3c0,229.4-196.9,327-421.5,327
	C3936.4,1971,3751.5,1825.8,3737.2,1606.7z"/>
<path class="st0" d="M4881,1572.6V749.5h86.5v811.2c0,215.9,158.8,335,366.7,335s371.5-120.7,371.5-335V749.5h85.7v823.1
	c0,235.8-197.6,398.5-457.2,398.5C5076.3,1971,4881,1808.3,4881,1572.6z"/>
<path class="st0" d="M6710.7,1879.8v75.4h-580.2V749.5h85.7v1130.3H6710.7z"/>
<path class="st0" d="M7006,824.9v489.8h509.6v77H7006v488.2h581v75.4h-666.8V749.5H7587v75.4L7006,824.9z"/>
<path class="st1" d="M1402.2,1746.8c-214.6,244.5-571.5,282.2-816,67.7s-268.8-586.7-54.3-831.3L1402.2,1746.8z"/>
<path class="st0" d="M1381.9,911.4c-48.1-42.2-102-77.6-160.8-103.1c-29.8-12.9-60.2-24.1-91.6-32.4c-31-8-62.6-13.8-94.4-17.2
	c-61-6.8-122.6-3.7-182.9,7.3c-60.7,11.1-119.7,31.9-174.5,60.2c-56.3,29.3-107.9,67.1-152.8,112c-46.1,46-85.7,99.7-114.9,158
	c-27.9,55.9-47.5,115.8-56.1,177.7c-4.5,32-7.1,64.1-6.4,96.4c0.8,32.3,4,64.5,9.8,96.2c10.8,61.3,32,120.9,60.6,176.2
	c29.8,57.6,69.1,110.7,114.6,156.9c11,11.2,22.4,22,34.2,32.4c6.9,6.1,15.9,11,25.5,10.5c9.2-0.4,19.2-3.4,25.5-10.5l20.5-23.4
	l55.7-63.3l82.2-93.6l100.3-114.2l109.9-125l111.2-126.5l103.1-117.3l87.6-99.7l62.6-71.3c9.9-11.3,19.9-22.6,29.8-34l1.3-1.4
	c6.3-7.2,10.5-15.6,10.5-25.5C1392.4,928.1,1388.5,917.5,1381.9,911.4c-13.6-12.5-37.6-15.1-50.9,0l-20.5,23.4l-55.7,63.3
	l-82.2,93.6l-100.3,114.2l-109.9,125l-111.2,126.6L748,1574.7l-87.6,99.7l-62.6,71.3c-9.9,11.3-20,22.5-29.8,33.9l-1.3,1.4h50.9
	c-30.7-27-58.7-56.8-83.8-89.1l5.6,7.3c-32.1-41.5-58.7-87-79.3-135.3l3.6,8.6c-20-47.4-33.7-97.2-40.6-148.1l1.3,9.6
	c-6.6-49.1-6.6-98.8-0.2-147.9l-1.3,9.6c6.5-47.9,19.2-94.7,37.9-139.2l-3.6,8.6c19.1-45,43.9-87.3,73.8-126l-5.6,7.3
	c31-40,67-76,107-107l-7.3,5.7c40.3-31,84.4-56.7,131.3-76.5l-8.6,3.6c48.6-20.3,99.6-34.2,151.8-41.2l-9.6,1.3
	c52.4-7,105.6-7,158,0l-9.6-1.3c51.6,7,102,20.7,150,40.9l-8.6-3.6c46.2,19.6,89.8,45.1,129.5,75.7l-7.3-5.6
	c9.9,7.7,19.6,15.6,29,23.9c7.2,6.3,15.6,10.5,25.5,10.5c8.8,0,19.4-3.9,25.5-10.5C1394.4,948.7,1397,924.7,1381.9,911.4z"/>
<path class="st0" d="M468.9,2398.3v16.3H343.4v-260.7h18.5v244.4H468.9z"/>
<path class="st0" d="M636.2,2292v122.6H619l-0.3-33.5c-12.9,27.5-41.5,37.1-67.3,37.1c-32.6,0-58.7-16-58.7-49.8
	c0-34.3,27.1-48.7,73.6-54.8l51.8-6.5v-18c0-28-24-41.7-52.2-41.7c-27.5,0-52.2,13.2-52,43.8l-17.3-5.3
	c1.9-35.7,31.2-53.7,69.9-53.7C605.7,2232.1,636.2,2250.5,636.2,2292z M618,2321l-53.5,7.7c-35,5.1-53.2,14.6-53.2,39.3
	c0,24.9,19.1,35.2,46.2,35.2C606,2403.3,618.2,2371,618,2321z"/>
<path class="st0" d="M947.6,2324.6c0,56-27,93.4-75.5,93.4c-33.8,0-53.9-17.9-66.1-47l-0.2,43.6h-17.7v-260.8H806l0.3,123.8
	c11.8-27.8,31.6-46,65.7-46C921.3,2231.6,947.6,2269.6,947.6,2324.6z M929.7,2324.6c0-45.7-20.2-77.6-60.8-77.6
	c-41.7,0-64,34.7-64,77.6c0,43.1,22.3,77.6,64,77.6C909.5,2402.2,929.7,2370.5,929.7,2324.6z"/>
<path class="st0" d="M983.4,2324.6c0-56.1,30.7-93,79.8-93c49.3,0,79.6,36.9,79.6,93c0,56.6-30.4,93.4-79.6,93.4
	C1014.5,2418,983.4,2381.3,983.4,2324.6z M1125.5,2324.6c0-47.4-23.9-77.4-62.3-77.4c-38.6,0-62.1,30-62.1,77.4
	c0,47.7,23.5,77.9,62.1,77.9C1101.7,2402.6,1125.6,2372.4,1125.5,2324.6L1125.5,2324.6z"/>
<path class="st0" d="M1326.9,2235.2v179.4h-18l-0.2-26.1c-11.2,18.9-31.2,29.5-56.3,29.5c-35.2,0-64.4-21.1-64.4-62.1v-120.7h18.2
	v116.7c0,35.7,23,50.6,49.8,50.6c30.4,0,52.7-18.7,52.7-53.4v-114L1326.9,2235.2z"/>
<path class="st0" d="M1400.3,2371.5v-121.7h-41.7v-14.6h41.7v-61.4h17.8v61.4h49.1v14.6h-49.1v120.3c0,18.7,11.5,29.7,30.9,29.7
	h18.2v14.8h-20.6C1419.4,2414.6,1400.3,2399,1400.3,2371.5z"/>
<path class="st0" d="M1499.7,2165.4c0-8.4,8.1-14.9,16.8-14.9c9.1,0,16.8,6.5,16.8,14.9c0,8.2-7.7,15.3-16.8,15.3
	C1507.8,2180.6,1499.7,2173.6,1499.7,2165.4z M1507.1,2235.2h18.2v179.4h-18.2V2235.2z"/>
<path class="st0" d="M1734.3,2235.2v272.2H1716v-134.9c-11.7,26.6-31.8,45.5-63.8,45.5c-51.3,0-76.9-36.7-76.9-93.4
	c0-56.1,25.6-93,76.9-93c32.1,0,52.2,18.7,64,45.7l0.5-42.1L1734.3,2235.2z M1717.5,2324.6c0-42.6-23.3-77.1-63-77.1
	c-42.1,0-61.6,29.7-61.6,77.1c0,47.7,19.6,77.6,61.6,77.6C1694.2,2402.2,1717.5,2367.7,1717.5,2324.6L1717.5,2324.6z"/>
<path class="st0" d="M1932.2,2235.2v179.4h-18l-0.2-26.1c-11.2,18.9-31.2,29.5-56.3,29.5c-35.2,0-64.4-21.1-64.4-62.1v-120.7h18.2
	v116.7c0,35.7,23,50.6,49.8,50.6c30.4,0,52.7-18.7,52.7-53.4v-114L1932.2,2235.2z"/>
<path class="st0" d="M1998.5,2326.4c0,51.1,24.5,76.2,62.1,76.2c30.4,0,46.7-18.2,56.3-45.8l16.1,5.8c-12,33.3-34.7,55.4-72.1,55.4
	c-49.6,0-79.5-34.7-79.5-93.4c0-58,30.4-92.9,79.1-92.9c47.7,0,74.3,30.9,74.3,88.6l-0.3,6L1998.5,2326.4z M1999,2311.9h118.3
	c-1.4-43.9-20.6-65.4-56.6-65.4C2024.9,2246.6,2002.4,2269.4,1999,2311.9L1999,2311.9z"/>
<path class="st0" d="M2280.1,2326.4c0,51.1,24.5,76.2,62.1,76.2c30.4,0,46.7-18.2,56.3-45.8l16.1,5.8c-12,33.3-34.7,55.4-72.1,55.4
	c-49.6,0-79.5-34.7-79.5-93.4c0-58,30.4-92.9,79.1-92.9c47.7,0,74.3,30.9,74.3,88.6l-0.3,6L2280.1,2326.4z M2280.6,2311.9h118.3
	c-1.4-43.9-20.6-65.4-56.6-65.4C2306.6,2246.6,2284.1,2269.4,2280.6,2311.9L2280.6,2311.9z M2347.8,2201.9h-15.6l40.5-45.1h25.1
	L2347.8,2201.9z"/>
<path class="st0" d="M2625.1,2324.6c0,56.6-25.8,93.4-76.9,93.4c-32.3,0-52.4-19.1-64-46v135.4H2466v-272.2h17.7l0.5,42.4
	c11.7-27.1,31.6-46,64-46C2599.4,2231.6,2625.1,2268.5,2625.1,2324.6z M2607.6,2324.6c0-47.4-19.9-77.1-61.8-77.1
	c-39.8,0-63,34.5-63,77.1c0,43.1,23.2,77.6,63,77.6C2587.7,2402.2,2607.6,2372.4,2607.6,2324.6L2607.6,2324.6z"/>
<path class="st0" d="M2814.1,2293.6v121h-18.2v-116.9c0-36-22.8-50.5-49.1-50.5c-30.6,0-53.4,19.1-53.4,53.2v114.1h-18.2v-260.7
	h18.2v107.6c11.2-19.1,31.2-29.9,56.5-29.9C2785.3,2231.6,2814.1,2252.9,2814.1,2293.6z"/>
<path class="st0" d="M2876.6,2326.4c0,51.1,24.5,76.2,62.1,76.2c30.4,0,46.7-18.2,56.3-45.8l16.1,5.8c-12,33.3-34.7,55.4-72.1,55.4
	c-49.6,0-79.5-34.7-79.5-93.4c0-58,30.4-92.9,79.1-92.9c47.7,0,74.3,30.9,74.3,88.6l-0.3,6L2876.6,2326.4z M2877.1,2311.9h118.3
	c-1.4-43.9-20.6-65.4-56.6-65.4C2903,2246.6,2880.5,2269.4,2877.1,2311.9L2877.1,2311.9z M2944.2,2201.9h-15.6l40.5-45.1h25.1
	L2944.2,2201.9z"/>
<path class="st0" d="M3305.2,2290.8v123.8h-17.7v-120.3c0-32.6-19.6-47-44.6-47c-28.3,0-49.6,16.8-49.6,48.6v118.8h-18v-118.3
	c0-33.8-19.2-49.1-45.3-49.1c-28,0-49.8,16.8-49.8,48.4v118.9h-17.9v-179.4h17.9v25.9c10.3-18.7,29.4-29.5,53.4-29.5
	c23.3,0,44.4,11,54.1,32.4c10.3-20.4,30.9-32.4,56.5-32.4C3277.7,2231.6,3305.2,2252.6,3305.2,2290.8z"/>
<path class="st0" d="M3368,2326.4c0,51.1,24.5,76.2,62.1,76.2c30.4,0,46.7-18.2,56.3-45.8l16.1,5.8c-12,33.3-34.7,55.4-72.1,55.4
	c-49.6,0-79.5-34.7-79.5-93.4c0-58,30.4-92.9,79.1-92.9c47.7,0,74.3,30.9,74.3,88.6l-0.3,6L3368,2326.4z M3368.5,2311.9h118.3
	c-1.4-43.9-20.6-65.4-56.6-65.4C3394.4,2246.6,3371.9,2269.4,3368.5,2311.9L3368.5,2311.9z M3419.7,2201.9l-49.9-45.1h25.1
	l40.7,45.1H3419.7z"/>
<path class="st0" d="M3633,2233.3v17.5c-35.9,0-61.4,19.1-61.4,61.1v102.6h-17.9v-179.4h18.4v35
	C3582,2246.4,3605.7,2233.7,3633,2233.3z"/>
<path class="st0" d="M3668.3,2326.4c0,51.1,24.5,76.2,62.1,76.2c30.4,0,46.7-18.2,56.3-45.8l16.1,5.8c-12,33.3-34.7,55.4-72.1,55.4
	c-49.6,0-79.5-34.7-79.5-93.4c0-58,30.4-92.9,79.1-92.9c47.7,0,74.3,30.9,74.3,88.6l-0.3,6L3668.3,2326.4z M3668.9,2311.9h118.3
	c-1.4-43.9-20.6-65.4-56.6-65.4C3694.8,2246.6,3672.3,2269.4,3668.9,2311.9L3668.9,2311.9z"/>
<path class="st0" d="M4093,2153.9v260.7h-17.7l-0.2-43.6c-12.2,29.2-32.1,47-66.1,47c-48.4,0-75.5-37.4-75.5-93.4
	c0-55.1,26.4-93,75.5-93c34.2,0,53.9,18.2,65.7,46l0.3-123.8L4093,2153.9z M4076.2,2324.7c0-42.9-22.3-77.6-64-77.6
	c-40.5,0-60.6,31.9-60.6,77.6c0,45.8,20.1,77.6,60.6,77.6C4053.8,2402.2,4076.1,2367.7,4076.2,2324.7L4076.2,2324.7z"/>
<path class="st0" d="M4159.4,2326.4c0,51.1,24.5,76.2,62.1,76.2c30.4,0,46.7-18.2,56.3-45.8l16.1,5.8c-12,33.3-34.7,55.4-72.1,55.4
	c-49.6,0-79.5-34.7-79.5-93.4c0-58,30.4-92.9,79.1-92.9c47.7,0,74.3,30.9,74.3,88.6l-0.3,6L4159.4,2326.4z M4159.9,2311.9h118.3
	c-1.4-43.9-20.6-65.4-56.6-65.4C4185.8,2246.6,4163.3,2269.4,4159.9,2311.9L4159.9,2311.9z"/>
<path class="st0" d="M4328.8,2362.1l17.7-4.6c0.2,27.3,23,45.7,56.5,45.7c23.9,0,49.4-8.9,48.4-35.4c-0.7-24.2-22.5-29.7-54.9-37.4
	c-30.2-7.2-60.6-15.6-60.6-49.8c0-33.8,30.2-48.4,63.3-48.4c36.7,0,66.8,17.5,68.1,53l-17.2,5.5c0.3-30.4-24.7-43.9-50.5-43.9
	c-21.1,0-45.8,9.1-45.8,33.6c0,24.4,23.9,30,49.8,35.9c31.2,7,65.9,14.6,65.9,51.5c0,35.7-31.2,50.3-65.9,50.3
	C4361.4,2418,4331.5,2396.7,4328.8,2362.1z"/>
<path class="st0" d="M4597.6,2324.6c0-56.3,32.8-93,79.8-93c37.8,0,67.5,23,72.4,60.6l-16.8,5c-3.3-31.1-26.4-49.9-55.6-49.9
	c-37.1,0-62.1,30-62.1,77.4s25.1,77.6,62.1,77.6c29,0,52.5-18.9,55.4-50.1l17,5c-5,37.8-34.5,60.6-72.4,60.6
	C4630.4,2417.7,4597.6,2381.1,4597.6,2324.6z"/>
<path class="st0" d="M4876.7,2233.3v17.5c-35.9,0-61.5,19.1-61.5,61.1v102.6h-17.9v-179.4h18.4v35
	C4825.7,2246.4,4849.4,2233.7,4876.7,2233.3z"/>
<path class="st0" d="M4912,2326.4c0,51.1,24.5,76.2,62.1,76.2c30.4,0,46.7-18.2,56.3-45.8l16.1,5.8c-12,33.3-34.7,55.4-72.1,55.4
	c-49.6,0-79.5-34.7-79.5-93.4c0-58,30.4-92.9,79.1-92.9c47.7,0,74.3,30.9,74.3,88.6l-0.3,6L4912,2326.4z M4912.5,2311.9h118.3
	c-1.4-43.9-20.6-65.4-56.6-65.4C4938.5,2246.6,4916,2269.4,4912.5,2311.9L4912.5,2311.9z M4979.6,2201.9H4964l40.5-45.1h25.1
	L4979.6,2201.9z"/>
<path class="st0" d="M5227.7,2292v122.6h-17.2l-0.3-33.5c-12.9,27.5-41.5,37.1-67.3,37.1c-32.6,0-58.7-16-58.7-49.8
	c0-34.3,27.1-48.7,73.6-54.8l51.8-6.5v-18c0-28-24-41.7-52.2-41.7c-27.5,0-52.2,13.2-52,43.8l-17.3-5.3
	c1.9-35.7,31.2-53.7,69.9-53.7C5197.1,2232.1,5227.7,2250.5,5227.7,2292z M5209.5,2321l-53.5,7.7c-35,5.1-53.2,14.6-53.2,39.3
	c0,24.9,19,35.2,46.2,35.2C5197.5,2403.3,5209.6,2371,5209.5,2321L5209.5,2321z"/>
<path class="st0" d="M5297.5,2371.5v-121.7h-41.7v-14.6h41.7v-61.4h17.9v61.4h49.1v14.6h-49.1v120.3c0,18.7,11.5,29.7,30.9,29.7
	h18.2v14.8h-20.6C5316.6,2414.6,5297.5,2399,5297.5,2371.5z"/>
<path class="st0" d="M5407.7,2326.4c0,51.1,24.5,76.2,62.1,76.2c30.4,0,46.7-18.2,56.3-45.8l16.1,5.8c-12,33.3-34.7,55.4-72.1,55.4
	c-49.6,0-79.5-34.7-79.5-93.4c0-58,30.4-92.9,79.1-92.9c47.7,0,74.3,30.9,74.3,88.6l-0.3,6L5407.7,2326.4z M5408.2,2311.9h118.3
	c-1.4-43.9-20.6-65.4-56.6-65.4C5434.1,2246.6,5411.6,2269.4,5408.2,2311.9L5408.2,2311.9z"/>
<path class="st0" d="M5728.3,2235.2v179.4h-18l-0.2-26.1c-11.2,18.9-31.2,29.5-56.3,29.5c-35.2,0-64.4-21.1-64.4-62.1v-120.7h18.2
	v116.7c0,35.7,23,50.6,49.8,50.6c30.4,0,52.7-18.7,52.7-53.4v-114L5728.3,2235.2z"/>
<path class="st0" d="M5870.4,2233.3v17.5c-35.9,0-61.5,19.1-61.5,61.1v102.6h-17.9v-179.4h18.4v35
	C5819.5,2246.4,5843.1,2233.7,5870.4,2233.3z"/>
<path class="st0" d="M5886,2362.1l17.7-4.6c0.2,27.3,23,45.7,56.5,45.7c23.9,0,49.4-8.9,48.4-35.4c-0.7-24.2-22.5-29.7-54.9-37.4
	c-30.2-7.2-60.6-15.6-60.6-49.8c0-33.8,30.2-48.4,63.3-48.4c36.7,0,66.8,17.5,68.1,53l-17.2,5.5c0.3-30.4-24.7-43.9-50.5-43.9
	c-21.1,0-45.8,9.1-45.8,33.6c0,24.4,23.9,30,49.8,35.9c31.2,7,65.9,14.6,65.9,51.5c0,35.7-31.2,50.3-65.9,50.3
	C5918.7,2418,5888.8,2396.7,5886,2362.1z"/>
<path class="st0" d="M6358,2344.7c0,42.9-28.8,69.9-92.2,69.9H6177v-260.7h73.6c56.1,0,86.3,27.6,86.3,65.9c0,26.4-14.8,46.2-34,56
	C6336.4,2281.2,6358,2307.5,6358,2344.7z M6249.6,2170.4h-54.4v100.1h73.3c27,0,50-21.1,50-50.5
	C6318.4,2192.5,6299,2170.4,6249.6,2170.4L6249.6,2170.4z M6339.9,2342.7c0-35-22.7-56.1-71.1-56.1h-73.6v111.6h68.6
	C6317.5,2398.1,6339.9,2377.9,6339.9,2342.7L6339.9,2342.7z"/>
<path class="st0" d="M6393.8,2324.6c0-56.1,30.7-93,79.8-93c49.3,0,79.6,36.9,79.6,93c0,56.6-30.4,93.4-79.6,93.4
	C6424.8,2418,6393.8,2381.3,6393.8,2324.6z M6535.9,2324.6c0-47.4-23.9-77.4-62.3-77.4c-38.6,0-62.1,30-62.1,77.4
	c0,47.7,23.5,77.9,62.1,77.9C6512,2402.6,6535.9,2372.4,6535.9,2324.6L6535.9,2324.6z"/>
<path class="st0" d="M6681.6,2233.3v17.5c-35.9,0-61.5,19.1-61.5,61.1v102.6h-17.9v-179.4h18.4v35
	C6630.6,2246.4,6654.3,2233.7,6681.6,2233.3z"/>
<path class="st0" d="M6859.9,2153.9v260.7h-17.7l-0.2-43.6c-12.2,29.2-32.1,47-66.1,47c-48.4,0-75.5-37.4-75.5-93.4
	c0-55.1,26.4-93,75.5-93c34.2,0,53.9,18.2,65.7,46l0.3-123.8L6859.9,2153.9z M6843.1,2324.7c0-42.9-22.3-77.6-64-77.6
	c-40.5,0-60.6,31.9-60.6,77.6c0,45.8,20.1,77.6,60.6,77.6C6820.8,2402.2,6843.1,2367.7,6843.1,2324.7L6843.1,2324.7z"/>
<path class="st0" d="M6926.3,2326.4c0,51.1,24.5,76.2,62.1,76.2c30.4,0,46.7-18.2,56.3-45.8l16.1,5.8c-12,33.3-34.7,55.4-72.1,55.4
	c-49.6,0-79.5-34.7-79.5-93.4c0-58,30.4-92.9,79.1-92.9c47.7,0,74.3,30.9,74.3,88.6l-0.3,6L6926.3,2326.4z M6926.8,2311.9h118.3
	c-1.4-43.9-20.6-65.4-56.6-65.4C6952.8,2246.6,6930.3,2269.4,6926.8,2311.9L6926.8,2311.9z"/>
<path class="st0" d="M7112.2,2153.9h18.2v260.7h-18.2V2153.9z"/>
<path class="st0" d="M7323.3,2292v122.6h-17.2l-0.3-33.5c-12.9,27.5-41.5,37.1-67.3,37.1c-32.6,0-58.7-16-58.7-49.8
	c0-34.3,27.1-48.7,73.6-54.8l51.8-6.5v-18c0-28-24-41.7-52.2-41.7c-27.5,0-52.2,13.2-52,43.8l-17.3-5.3
	c1.9-35.7,31.2-53.7,69.9-53.7C7292.8,2232.1,7323.3,2250.5,7323.3,2292z M7305.1,2321l-53.5,7.7c-35,5.1-53.2,14.6-53.2,39.3
	c0,24.9,19,35.2,46.2,35.2C7293.1,2403.3,7305.3,2371,7305.1,2321L7305.1,2321z"/>
<path class="st0" d="M7375.2,2165.4c0-8.4,8.1-14.9,16.8-14.9c9.1,0,16.8,6.5,16.8,14.9c0,8.2-7.7,15.3-16.8,15.3
	C7383.2,2180.6,7375.2,2173.6,7375.2,2165.4z M7382.5,2235.2h18.2v179.4h-18.2V2235.2z"/>
<path class="st0" d="M7447.3,2362.1l17.7-4.6c0.2,27.3,23,45.7,56.5,45.7c23.9,0,49.4-8.9,48.4-35.4c-0.7-24.2-22.5-29.7-54.9-37.4
	c-30.2-7.2-60.6-15.6-60.6-49.8c0-33.8,30.2-48.4,63.3-48.4c36.7,0,66.8,17.5,68.1,53l-17.2,5.5c0.3-30.4-24.7-43.9-50.5-43.9
	c-21.1,0-45.8,9.1-45.8,33.6c0,24.4,23.9,30,49.8,35.9c31.2,7,65.9,14.6,65.9,51.5c0,35.7-31.2,50.3-65.9,50.3
	C7479.9,2418,7450,2396.7,7447.3,2362.1z"/>
</svg>
