<?xml version="1.0" encoding="utf-8"?>
<!-- Generator: Adobe Illustrator 21.1.0, SVG Export Plug-In . SVG Version: 6.00 Build 0)  -->
<svg version="1.1" id="Calque_1" xmlns="http://www.w3.org/2000/svg" xmlns:xlink="http://www.w3.org/1999/xlink" x="0px" y="0px"
	 viewBox="0 0 1218.3 1276.7" style="enable-background:new 0 0 1218.3 1276.7;" xml:space="preserve">
<style type="text/css">
	.st0{fill:#0F0A00;}
	.st1{fill:#FFFFFF;}
</style>
<title>Plan de travail 5</title>
<g id="LOGOTYPE_NOIR">
	<path class="st0" d="M1136.5,1030.1c-214.6,244.5-571.5,282.2-816,67.7S51.7,511,266.2,266.5L1136.5,1030.1z"/>
	<path class="st1" d="M1116.2,194.7c-48.1-42.2-102-77.6-160.8-103.1c-29.8-12.9-60.2-24.1-91.6-32.4c-31-8-62.6-13.8-94.4-17.2
		c-61-6.9-122.6-3.7-182.9,7.3c-60.7,11.1-119.7,31.9-174.5,60.2c-56.3,29.3-107.9,67.1-152.8,112c-46.1,46-85.7,99.7-114.9,158
		c-27.9,55.9-47.5,115.8-56.1,177.7c-4.5,32-7.1,64.1-6.4,96.4c0.8,32.3,4,64.5,9.8,96.2c10.8,61.3,32,120.9,60.6,176.2
		c29.8,57.6,69.1,110.7,114.6,156.9c11,11.2,22.4,22,34.2,32.3c6.9,6.1,15.9,11,25.5,10.5c9.2-0.4,19.2-3.4,25.5-10.5l20.5-23.4
		l55.7-63.3l82.2-93.6l100.3-114.2l109.9-125l111.2-126.6l103.1-117.3l87.6-99.7l62.6-71.3c9.9-11.3,19.9-22.6,29.8-33.9l1.3-1.4
		c6.3-7.2,10.5-15.6,10.5-25.5C1126.8,211.3,1122.9,200.8,1116.2,194.7c-13.6-12.5-37.6-15.1-50.9,0l-20.5,23.4l-55.7,63.3
		l-82.2,93.6L806.6,489.1l-109.9,125L585.5,740.6L482.4,857.9l-87.6,99.7l-62.6,71.3c-9.9,11.3-20,22.5-29.8,33.9l-1.3,1.4h50.9
		c-30.7-27-58.7-56.8-83.8-89.1l5.6,7.3c-32.1-41.5-58.8-87-79.3-135.2l3.6,8.6c-20-47.4-33.7-97.1-40.6-148.1l1.3,9.6
		c-6.6-49.1-6.6-98.8-0.1-147.9l-1.3,9.6c6.5-47.9,19.2-94.7,37.8-139.2l-3.6,8.6c19.1-45,43.9-87.3,73.7-126l-5.6,7.3
		c31-40,67-76,107-106.9l-7.3,5.6c40.3-31,84.4-56.8,131.2-76.6l-8.6,3.6c48.6-20.4,99.6-34.2,151.8-41.3l-9.6,1.3
		c52.4-7,105.6-7,158,0l-9.6-1.3c51.6,7,102,20.7,150,40.9l-8.6-3.6c46.2,19.6,89.8,45.1,129.6,75.8l-7.3-5.6
		c9.9,7.7,19.6,15.6,29,23.9c7.2,6.3,15.6,10.5,25.5,10.5c8.8,0,19.4-3.9,25.5-10.5C1128.7,232,1131.4,207.9,1116.2,194.7z"/>
</g>
</svg>
